<?xml version="1.0" encoding="iso-8859-1"?>
<!-- Uploaded to: SVG Repo, www.svgrepo.com, Generator: SVG Repo Mixer Tools -->
<svg height="800px" width="800px" version="1.1" id="Layer_1" xmlns="http://www.w3.org/2000/svg" xmlns:xlink="http://www.w3.org/1999/xlink" 
	 viewBox="0 0 512 512" xml:space="preserve">
<circle style="fill:#71E2EF;" cx="256" cy="256" r="256"/>
<path style="fill:#38C6D9;" d="M511.738,244.71L362.939,95.915L149.104,416.127l95.823,95.62C248.599,511.903,252.288,512,256,512
	c141.384,0,256-114.616,256-256C512,252.216,511.902,248.454,511.738,244.71z"/>
<path style="fill:#FFFFFF;" d="M146.534,117.931l-0.002,276.137c0,13.024,10.559,23.583,23.583,23.583h171.77
	c13.024,0,23.581-10.557,23.581-23.581l0.002-276.137c0-13.024-10.559-23.583-23.583-23.583h-171.77
	C157.093,94.349,146.534,104.908,146.534,117.931z"/>
<path style="fill:#D8D8D8;" d="M341.885,94.349h-87.321v323.301h87.321c13.024,0,23.581-10.559,23.581-23.581l0.002-276.137
	C365.468,104.908,354.909,94.349,341.885,94.349z"/>
<path style="fill:#263A7A;" d="M341.885,87.454h-171.77c-16.806,0-30.479,13.672-30.479,30.477v276.137
	c0,16.806,13.672,30.479,30.479,30.479h171.77c16.806,0,30.479-13.672,30.479-30.477V117.932
	C372.364,101.126,358.691,87.454,341.885,87.454z M170.117,101.245h171.77c9.201,0,16.687,7.487,16.687,16.687l-0.002,259.375
	H153.428l0.002-259.377C153.429,108.73,160.916,101.245,170.117,101.245z"/>
<path style="fill:#121149;" d="M341.885,87.454h-87.321v13.791h87.321c9.201,0,16.687,7.487,16.687,16.687l-0.002,259.375H254.564
	v47.237h87.319c16.806,0,30.479-13.672,30.479-30.477l0.002-276.135C372.364,101.126,358.691,87.454,341.885,87.454z"/>
<g>
	<path style="fill:#366695;" d="M284.444,147.394h-56.889c-2.857,0-5.172-2.315-5.172-5.172s2.315-5.172,5.172-5.172h56.889
		c2.857,0,5.172,2.315,5.172,5.172S287.301,147.394,284.444,147.394z"/>
	<path style="fill:#366695;" d="M331.852,175.838H180.148c-2.857,0-5.172-2.315-5.172-5.172s2.315-5.172,5.172-5.172h151.704
		c2.857,0,5.172,2.315,5.172,5.172S334.708,175.838,331.852,175.838z"/>
	<path style="fill:#366695;" d="M331.852,204.283H180.148c-2.857,0-5.172-2.315-5.172-5.172c0-2.857,2.315-5.172,5.172-5.172
		h151.704c2.857,0,5.172,2.315,5.172,5.172C337.024,201.968,334.708,204.283,331.852,204.283z"/>
	<path style="fill:#366695;" d="M331.852,232.727H180.148c-2.857,0-5.172-2.315-5.172-5.172c0-2.857,2.315-5.172,5.172-5.172
		h151.704c2.857,0,5.172,2.315,5.172,5.172C337.024,230.412,334.708,232.727,331.852,232.727z"/>
	<path style="fill:#366695;" d="M331.852,261.172H180.148c-2.857,0-5.172-2.315-5.172-5.172s2.315-5.172,5.172-5.172h151.704
		c2.857,0,5.172,2.315,5.172,5.172S334.708,261.172,331.852,261.172z"/>
	<path style="fill:#366695;" d="M331.852,289.616H180.148c-2.857,0-5.172-2.315-5.172-5.172s2.315-5.172,5.172-5.172h151.704
		c2.857,0,5.172,2.315,5.172,5.172S334.708,289.616,331.852,289.616z"/>
	<path style="fill:#366695;" d="M331.852,318.061H180.148c-2.857,0-5.172-2.315-5.172-5.172s2.315-5.172,5.172-5.172h151.704
		c2.857,0,5.172,2.315,5.172,5.172S334.708,318.061,331.852,318.061z"/>
	<path style="fill:#366695;" d="M331.852,346.505H180.148c-2.857,0-5.172-2.315-5.172-5.172s2.315-5.172,5.172-5.172h151.704
		c2.857,0,5.172,2.315,5.172,5.172S334.708,346.505,331.852,346.505z"/>
</g>
</svg>