<?xml version="1.0" encoding="iso-8859-1"?>
<!-- Uploaded to: SVG Repo, www.svgrepo.com, Generator: SVG Repo Mixer Tools -->
<svg version="1.1" id="Layer_1" xmlns="http://www.w3.org/2000/svg" xmlns:xlink="http://www.w3.org/1999/xlink" 
	 viewBox="0 0 512 512" xml:space="preserve">
<g>
	<polygon style="fill:#FFF5C6;" points="7.604,100.682 7.604,304.075 127.442,304.075 160.021,339.577 192.6,304.075 
		312.439,304.075 312.439,100.682 	"/>
	<polygon style="fill:#FFF5C6;" points="312.439,209.54 312.439,304.075 264.43,304.075 264.43,372.173 351.834,372.173 
		384.414,407.675 416.992,372.173 504.396,372.173 504.396,209.54 	"/>
</g>
<g>
	<path style="fill:#002770;" d="M320.043,201.936V93.078H104.239v15.208h200.596v93.651v94.534h-48.009h-67.568l-29.236,31.86
		l-29.238-31.86H15.208V108.286h68.754V93.078H0V311.68h124.099l35.923,39.145l35.921-39.145h60.883v68.097h91.665l35.923,39.145
		l35.921-39.145H512v-177.84H320.043z M496.792,364.568h-83.143l-29.236,31.86l-29.238-31.86h-83.143v-52.889h48.009v-94.534
		h176.749V364.568z"/>
	<rect x="223.222" y="133.637" style="fill:#002770;" width="58.804" height="15.208"/>
	<rect x="38.02" y="133.637" style="fill:#002770;" width="164.925" height="15.208"/>
	<rect x="38.02" y="174.394" style="fill:#002770;" width="244.006" height="15.208"/>
	<rect x="122.505" y="215.151" style="fill:#002770;" width="159.511" height="15.208"/>
	<rect x="38.02" y="215.151" style="fill:#002770;" width="64.208" height="15.208"/>
	<rect x="38.02" y="255.918" style="fill:#002770;" width="244.006" height="15.208"/>
	<rect x="332.719" y="242.495" style="fill:#002770;" width="141.261" height="15.208"/>
	<rect x="332.719" y="283.252" style="fill:#002770;" width="141.261" height="15.208"/>
	<rect x="423.287" y="324.009" style="fill:#002770;" width="50.693" height="15.208"/>
	<rect x="294.841" y="324.009" style="fill:#002770;" width="108.169" height="15.208"/>
</g>
</svg>