<?xml version="1.0" encoding="iso-8859-1"?>
<!-- Uploaded to: SVG Repo, www.svgrepo.com, Generator: SVG Repo Mixer Tools -->
<svg version="1.1" id="Layer_1" xmlns="http://www.w3.org/2000/svg" xmlns:xlink="http://www.w3.org/1999/xlink" 
	 viewBox="0 0 512 512" xml:space="preserve">
<rect y="57.332" width="512" height="397.336"/>
<circle style="fill:#E21B1B;" cx="44.192" cy="89.38" r="8.928"/>
<g style="opacity:0.7;">
	<circle style="fill:#FFFFFF;" cx="70.968" cy="89.38" r="8.928"/>
</g>
<g>
	<circle style="fill:#666666;" cx="97.736" cy="89.38" r="8.928"/>
	<polygon style="fill:#666666;" points="443.52,105.06 155.96,105.06 175.08,73.716 462.656,73.716 	"/>
</g>
<g>
	<path style="fill:#FFFFFF;" d="M195.2,82.396l1.856,7.128c0.408,1.56,0.8,3.008,1.048,4.456h0.096c0.312-1.416,0.8-2.92,1.24-4.424
		l2.296-7.16h2.144l2.168,7.008c0.52,1.672,0.928,3.16,1.248,4.576h0.088c0.28-1.536,0.64-3.048,1.08-4.544l2.008-7.04h2.52
		l-4.52,14.016h-2.312l-2.144-6.688c-0.488-1.6-0.896-2.952-1.248-4.616h-0.056c-0.336,1.568-0.76,3.12-1.28,4.64l-2.264,6.664
		h-2.312l-4.224-14.016H195.2z"/>
	<path style="fill:#FFFFFF;" d="M216.856,82.396l1.856,7.128c0.408,1.56,0.8,3.008,1.048,4.456h0.088
		c0.32-1.416,0.8-2.92,1.248-4.424l2.28-7.16h2.144l2.176,7.008c0.52,1.672,0.928,3.16,1.24,4.576h0.096
		c0.272-1.536,0.632-3.056,1.08-4.544l2.008-7.04h2.52l-4.52,14.016h-2.328l-2.144-6.688c-0.496-1.512-0.912-3.056-1.24-4.616
		h-0.064c-0.328,1.568-0.752,3.12-1.272,4.64l-2.264,6.664h-2.328l-4.232-14.016H216.856z"/>
	<path style="fill:#FFFFFF;" d="M238.488,82.396l1.856,7.128c0.408,1.56,0.8,3.008,1.048,4.456h0.088
		c0.32-1.416,0.8-2.92,1.248-4.424l2.28-7.16h2.144l2.176,7.008c0.52,1.672,0.928,3.16,1.24,4.576h0.096
		c0.272-1.536,0.632-3.056,1.08-4.544l2.008-7.04h2.52l-4.52,14.016h-2.328l-2.152-6.688c-0.496-1.512-0.912-3.056-1.24-4.616
		h-0.064c-0.328,1.568-0.752,3.12-1.272,4.64l-2.264,6.664h-2.328l-4.232-14.016H238.488z"/>
</g>
<g>
	<polygon style="fill:#666666;" points="0,423.58 82.856,423.58 113.944,454.66 0,454.66 	"/>
	<polygon style="fill:#666666;" points="512,423.58 429.144,423.58 398.056,454.66 512,454.66 	"/>
</g>
<path style="fill:#E21B1B;" d="M425.456,322.028H86.544V201.276h338.912V322.028z M92.544,315.996h326.912v-108.72H92.544V315.996z"
	/>
<g>
	<path style="fill:#FFFFFF;" d="M217.184,293.06h-12.992l-1.408-45.672L180,293.06h-13.216l-2.344-62.464h12.568l0.592,43.72
		l21.432-43.712h13.936l1.448,43.248l20.576-43.248h12.448L217.184,293.06z"/>
	<path style="fill:#FFFFFF;" d="M240.16,293.06l13.04-62.464h46.32l-2.176,10.4h-33.456l-2.984,14.192h32.344l-2.168,10.4h-32.344
		l-3.92,16.96H291.2l-2.216,10.4L240.16,293.06z"/>
	<path style="fill:#FFFFFF;" d="M298.272,293.06l13.088-62.464h21.344c3.248-0.072,6.496,0.072,9.72,0.424
		c2.744,0.32,5.4,1.184,7.8,2.552c2.064,1.216,3.744,2.984,4.848,5.112c1.12,2.184,1.696,4.616,1.664,7.072
		c0.08,3.24-0.944,6.416-2.896,9.008c-2.32,2.8-5.44,4.816-8.944,5.776c2.952,0.712,5.592,2.36,7.52,4.704
		c1.76,2.16,2.72,4.864,2.704,7.648c-0.008,3.792-1.12,7.496-3.2,10.672c-2.064,3.312-5.152,5.864-8.8,7.264
		c-4.952,1.664-10.168,2.416-15.384,2.216L298.272,293.06z M313.232,283.004H325.6c3.52,0.192,7.048-0.152,10.464-1
		c1.728-0.632,3.216-1.792,4.256-3.304c1.024-1.416,1.584-3.112,1.6-4.856c0.04-1.968-0.8-3.856-2.304-5.136
		c-2.24-1.56-4.952-2.28-7.672-2.024H316.64L313.232,283.004z M318.896,255.804h9.8c3.2,0.136,6.392-0.184,9.504-0.936
		c1.752-0.496,3.288-1.576,4.344-3.064c0.936-1.336,1.448-2.928,1.448-4.56c0.056-1.432-0.432-2.832-1.36-3.92
		c-1.032-1.088-2.392-1.8-3.872-2.04c-2.256-0.232-4.52-0.32-6.784-0.256h-9.968L318.896,255.804z"/>
</g>
</svg>